<?xml version="1.0" standalone="no"?>
<!DOCTYPE svg PUBLIC "-//W3C//DTD SVG 20010904//EN"
 "http://www.w3.org/TR/2001/REC-SVG-20010904/DTD/svg10.dtd">
<svg version="1.0" xmlns="http://www.w3.org/2000/svg"
 width="1024.000000pt" height="1024.000000pt" viewBox="0 0 1024.000000 1024.000000"
 preserveAspectRatio="xMidYMid meet">

<g transform="translate(0.000000,1024.000000) scale(0.100000,-0.100000)"
fill="#000000" stroke="none">
<path d="M1296 7658 c17 -29 275 -358 498 -636 l51 -64 1423 1 1423 1 -12 -23
c-7 -12 -44 -71 -84 -132 -39 -60 -88 -138 -109 -172 l-37 -63 -1175 0 c-646
0 -1174 -3 -1173 -7 0 -5 69 -107 154 -228 85 -121 196 -282 247 -357 l93
-137 704 -1 c558 0 702 -3 698 -12 -2 -7 -69 -112 -147 -233 -79 -121 -219
-339 -312 -484 l-170 -264 87 -126 c195 -287 321 -465 330 -467 6 -2 19 11 30
29 332 526 833 1323 1048 1667 60 96 189 301 287 455 97 154 215 341 262 415
l85 135 1447 1 c1415 0 1447 1 1466 20 29 29 531 657 541 677 9 16 -176 17
-3826 17 -3066 0 -3835 -3 -3829 -12z"/>
<path d="M5571 6192 c-129 -207 -431 -690 -671 -1072 -240 -382 -521 -829
-624 -993 l-187 -297 205 -300 204 -300 123 197 c67 109 199 320 292 468 93
149 305 486 470 750 165 264 355 568 422 675 68 107 168 267 223 355 l100 160
257 3 256 2 -34 -52 c-18 -29 -123 -195 -232 -368 -109 -173 -251 -398 -315
-500 -64 -102 -211 -336 -327 -520 -518 -826 -900 -1433 -976 -1551 -8 -12 30
-74 179 -292 104 -152 192 -277 195 -277 7 0 23 25 414 635 327 511 861 1351
1195 1880 129 204 313 495 409 647 97 153 193 304 214 338 l37 60 124 0 125 0
253 355 c139 195 255 360 256 365 3 7 -397 10 -1175 10 l-1178 0 -234 -378z"/>
</g>
</svg>
